HIERARCHY
ROOT Hips
{
  OFFSET 0 0 0
  CHANNELS 6 Xposition Yposition Zposition Zrotation Yrotation Xrotation
  JOINT LeftThigh
  {
    OFFSET 8.409438 0 -5.917753
    CHANNELS 3 Zrotation Yrotation Xrotation
    JOINT LeftLeg
    {
      OFFSET 0 0 -42.358652
      CHANNELS 3 Zrotation Yrotation Xrotation
      JOINT LeftFoot
      {
        OFFSET 0 0 -39.357303
        CHANNELS 3 Zrotation Yrotation Xrotation
      }
    }
  }
  JOINT RightThigh
  {
    OFFSET -8.409438 0 -5.917753
    CHANNELS 3 Zrotation Yrotation Xrotation
    JOINT RightLeg
    {
      OFFSET 0 0 -42.358652
      CHANNELS 3 Zrotation Yrotation Xrotation
      JOINT RightFoot
      {
        OFFSET 0 0 -39.357303
        CHANNELS 3 Zrotation Yrotation Xrotation
      }
    }
  }
  JOINT SpineLow
  {
    OFFSET 0 0 4.719101
    CHANNELS 3 Zrotation Yrotation Xrotation
    JOINT SpineMid
    {
      OFFSET 0 0 12.899191
      CHANNELS 3 Zrotation Yrotation Xrotation
      JOINT Chest
      {
        OFFSET 0 0 12.899191
        CHANNELS 3 Zrotation Yrotation Xrotation
        JOINT LeftShoulder
        {
          OFFSET 7.550562 1.41573 9.438202
          CHANNELS 3 Zrotation Yrotation Xrotation
          JOINT LeftArm
          {
            OFFSET 9.155056 0 4.247191
            CHANNELS 3 Zrotation Yrotation Xrotation
            JOINT LeftForearm
            {
              OFFSET 0 0 25.771955
              CHANNELS 3 Zrotation Yrotation Xrotation
              JOINT LeftHand
              {
                OFFSET 0 0 25.197169
                CHANNELS 3 Zrotation Yrotation Xrotation
              }
            }
          }
        }
        JOINT RightShoulder
        {
          OFFSET -7.550562 1.41573 9.438202
          CHANNELS 3 Zrotation Yrotation Xrotation
          JOINT RightArm
          {
            OFFSET -9.155056 0 4.247191
            CHANNELS 3 Zrotation Yrotation Xrotation
            JOINT RightForearm
            {
              OFFSET 0 0 -25.771955
              CHANNELS 3 Zrotation Yrotation Xrotation
              JOINT RightHand
              {
                OFFSET 0 0 -25.197169
                CHANNELS 3 Zrotation Yrotation Xrotation
              }
            }
          }
        }
        JOINT Neck
        {
          OFFSET 0 0 15.101124
          CHANNELS 3 Zrotation Yrotation Xrotation
          JOINT Head
          {
            OFFSET 0 0 11.325843
            CHANNELS 3 Zrotation Yrotation Xrotation
            End Site
            {
              OFFSET 0 0 14.157303
            }
          }
        }
      }
    }
  }
}
MOTION
Frames: 10
Frame Time: 0.0
0.0  93.25843  0.0  90.411276  -44.483719  -169.686978  4.151624  -40.205968  -8.716141  4.235373  -3.316016  -9.215953  0.333232  1.250528  7.386801  6.36636  33.76271  -25.325998  15.395846  12.412245  25.561378  10.011893  4.908177  -0.767871  2.28457  3.513488  3.014138  6.714482  9.289969  8.616739  6.714482  9.289969  8.616739  -9.453272  30.244803  13.498657  166.434075  71.2539  -147.383777  -32.68737  -4.812195  102.460868  85.048487  -12.171206  -9.809471  17.369735  -8.80949  24.49216  163.35143  64.290374  109.432214  -9.704635  -29.335963  -119.313998  55.889474  0.600392  -15.419674  16.476366  18.002612  23.065956  11.57287  14.151446  16.668814  
0.0  93.25843  0.0  91.441714  -45.208866  -170.414769  19.249603  -38.846163  -18.06215  -9.077511  -2.802768  -5.265679  1.609568  1.454662  7.817484  9.789613  33.463008  -23.108644  13.695548  12.742446  25.313964  9.664605  4.320212  -0.595636  2.353328  3.420286  3.053502  6.89427  9.022595  8.722124  6.89427  9.022595  8.722124  -9.990973  30.435396  13.284733  167.009966  71.724274  -146.446666  -32.570591  -5.475741  101.648025  84.797427  -11.841289  -10.568323  17.552012  -8.408485  23.959313  161.261311  66.429952  107.870803  -8.318333  -28.875288  -119.533233  55.729917  0.396593  -15.316534  16.257835  18.154486  22.831959  11.408793  14.250351  16.49396  
0.0  93.25843  0.0  88.629568  -44.906884  -166.676606  27.339181  -36.504727  -25.209817  -18.471028  -1.65501  -2.091784  2.540113  1.572443  8.045863  8.966861  33.304627  -23.212612  13.302172  12.96686  25.216598  8.573878  5.992819  -0.186983  1.998102  3.341021  2.932941  5.892037  8.865816  8.334383  5.892037  8.865815  8.334383  -10.200732  29.990919  12.157247  162.22314  71.084863  -150.48832  -32.998246  -5.434323  101.453302  84.458161  -12.113401  -10.855591  17.363813  -7.608769  23.720203  159.406631  67.969943  106.076456  -7.590014  -28.986792  -119.519179  55.590576  0.203742  -15.008543  15.864289  18.388941  22.791266  11.104515  14.410137  16.464484  
0.0  93.25843  0.0  86.455813  -45.563728  -163.857138  29.607365  -36.719705  -28.64024  -21.722879  -0.442298  1.340673  2.535196  2.125471  8.006165  9.249542  32.475918  -22.843613  11.922989  14.17158  25.123099  8.781147  5.756782  -0.72676  1.826415  3.161012  2.819343  5.381303  8.406967  7.981034  5.381303  8.406966  7.981035  -10.190382  29.068876  11.040683  156.740229  70.086455  -155.046027  -33.730246  -4.823145  101.445685  84.644261  -12.699748  -10.541682  16.850969  -7.190015  23.588487  158.129654  68.113304  104.248787  -7.943926  -29.533625  -119.24145  55.448318  0.066364  -14.529117  15.479877  18.476962  22.858763  10.811617  14.463326  16.522068  
0.0  93.25843  0.0  84.884258  -46.832082  -162.387269  28.958934  -38.400713  -28.914348  -22.142268  0.423968  4.443181  2.462887  2.616457  7.888655  10.461976  31.130879  -21.614024  10.935546  15.289307  24.883704  9.495125  4.997567  -0.842425  1.73182  2.911606  2.750489  5.080409  7.744142  7.755928  5.080409  7.744142  7.755928  -10.094091  28.49728  10.520965  154.43347  69.417728  -156.900643  -34.116456  -4.5035  101.622805  85.201196  -13.107176  -10.066411  16.556933  -7.185129  23.586209  157.440037  67.21842  102.718762  -8.984982  -30.138056  -118.738565  55.253441  0.016448  -14.079868  15.47106  18.575471  23.022583  10.794966  14.541391  16.639783  
0.0  93.25843  0.0  83.8921  -47.900799  -161.691957  26.740736  -40.124127  -28.023628  -21.343045  1.498087  8.218372  2.710831  2.853732  7.86516  12.200733  30.301341  -20.140693  10.936443  14.624312  24.897632  8.983966  5.15191  -0.488828  1.602648  2.678901  2.604722  4.680935  7.135743  7.320587  4.680935  7.135743  7.320587  -9.581504  28.881109  10.71755  154.335993  69.359584  -157.182682  -34.06544  -4.982793  101.925301  85.446262  -13.202369  -9.747698  16.91676  -7.111662  24.280352  156.93295  66.621099  101.499453  -9.790081  -30.480246  -118.294251  55.089958  0.00555  -13.748487  16.008315  18.763551  23.445677  11.172178  14.715248  16.92986  
0.0  93.25843  0.0  82.957245  -48.486592  -161.127488  23.506784  -42.331565  -27.705388  -19.539156  3.865067  13.283403  3.288102  3.013584  7.979823  13.842725  29.962541  -18.850263  11.38879  13.295014  25.240482  7.543186  5.548197  -0.230772  1.172397  2.359578  2.228504  3.429073  6.333248  6.22204  3.429074  6.333248  6.22204  -6.800147  31.074389  12.428879  156.367595  69.20022  -156.187392  -33.593403  -5.881244  102.464155  85.354762  -13.535118  -9.34304  18.97867  -6.316111  26.676589  156.343941  66.771553  100.507076  -9.875909  -30.451794  -118.097184  54.940006  0.014613  -13.549348  17.925469  19.454269  24.681009  12.522186  15.348212  17.756109  
0.0  93.25843  0.0  81.672474  -48.626251  -160.533431  19.326347  -44.724299  -27.502285  -16.82337  6.914832  19.172791  3.95611  3.175521  8.243767  14.007374  29.414565  -18.02902  12.202447  12.694505  25.5366  6.630332  5.494786  0.056152  0.937214  2.228356  2.144254  2.764413  6.001091  5.961794  2.764413  6.001091  5.961794  -6.030352  31.944358  12.943478  157.919839  69.69605  -154.908182  -33.227665  -6.543508  102.683722  85.318784  -13.415432  -9.411449  19.835946  -6.032627  27.485934  155.320906  67.581149  99.382061  -9.397202  -30.192715  -118.103876  54.90899  0.077652  -13.405114  18.598557  19.647487  24.911445  13.00431  15.528804  17.896314  
0.0  93.25843  0.0  80.08765  -48.523431  -159.924329  15.1662  -46.578521  -27.370085  -13.500272  9.926651  25.703006  4.584436  3.041175  8.479063  12.675599  28.575653  -17.625419  15.263813  12.801533  26.552054  4.62205  4.243602  -0.242385  0.845389  2.198764  2.211412  2.516192  5.925957  6.13606  2.516192  5.925957  6.136061  -6.106139  31.992196  13.117628  160.079043  69.517095  -152.865202  -32.352577  -6.963925  103.249835  85.408508  -13.338856  -9.512703  19.86949  -6.069088  27.587828  153.792856  68.48294  97.899836  -8.997561  -29.963487  -118.1153  54.977628  0.159103  -13.359045  18.485341  19.459254  24.695541  12.938061  15.37574  17.749346  
0.0  93.25843  0.0  78.218773  -48.075191  -159.388031  12.328765  -47.103524  -27.347796  -11.103389  11.917291  31.969172  5.041844  3.072687  8.652002  10.449181  27.963418  -17.293932  15.97971  13.05678  26.734233  5.605121  4.079036  -0.219266  0.843971  2.242538  2.363098  2.530383  6.03946  6.5537  2.530383  6.039459  6.553699  -6.774192  31.582482  13.117769  160.197881  69.748815  -152.328967  -32.176392  -6.979081  103.38173  85.565819  -13.277933  -9.638352  19.273959  -6.330922  27.525127  151.860266  69.059776  95.952675  -9.027757  -29.908992  -117.994009  55.055711  0.232775  -13.343811  17.929158  18.99347  24.427195  12.559645  14.994427  17.590971  
